<?xml version="1.0" standalone="no"?>
<!DOCTYPE svg PUBLIC "-//W3C//DTD SVG 20010904//EN"
 "http://www.w3.org/TR/2001/REC-SVG-20010904/DTD/svg10.dtd">
<svg version="1.0" xmlns="http://www.w3.org/2000/svg"
 width="512.000000pt" height="512.000000pt" viewBox="0 0 512.000000 512.000000"
 preserveAspectRatio="xMidYMid meet">

<g transform="translate(0.000000,512.000000) scale(0.100000,-0.100000)"
fill="#000000" stroke="none">
<path d="M2330 4949 c-393 -41 -768 -176 -1095 -394 -148 -99 -229 -165 -359
-293 -268 -262 -464 -571 -582 -915 -42 -122 -43 -158 -8 -186 63 -50 108 -15
154 119 156 462 472 870 887 1146 224 149 530 275 796 328 132 27 303 46 404
46 55 0 68 4 88 25 16 15 25 36 25 55 0 19 -9 40 -25 55 -22 23 -31 25 -112
24 -48 -1 -126 -6 -173 -10z"/>
<path d="M2340 4389 c-461 -60 -885 -287 -1177 -631 -413 -486 -548 -1134
-362 -1741 186 -607 692 -1088 1307 -1241 175 -44 239 -51 452 -51 220 0 280
7 470 56 667 171 1193 727 1334 1411 134 648 -103 1339 -606 1765 -275 234
-606 382 -956 428 -115 16 -357 18 -462 4z m388 -779 c193 -54 339 -176 423
-355 46 -98 62 -174 61 -285 -1 -176 -66 -325 -198 -457 l-83 -82 74 -348 c41
-191 75 -365 75 -385 0 -28 -6 -42 -26 -57 -26 -21 -36 -21 -494 -21 -458 0
-468 0 -494 21 -20 15 -26 29 -26 57 0 20 34 195 75 387 l75 350 -59 53 c-148
131 -223 297 -223 492 -1 180 63 331 192 460 84 84 165 132 280 167 101 30
246 31 348 3z"/>
<path d="M2419 3451 c-168 -54 -294 -185 -339 -352 -17 -63 -15 -187 5 -255
30 -106 107 -210 205 -277 53 -37 69 -55 70 -81 0 -11 -31 -167 -70 -348 -38
-181 -70 -335 -70 -343 0 -13 49 -15 340 -15 265 0 340 3 340 13 0 6 -32 164
-71 350 -79 373 -79 375 -16 412 49 29 133 112 168 166 64 100 90 264 59 378
-46 170 -187 313 -354 357 -71 19 -199 17 -267 -5z"/>
<path d="M199 2841 c-25 -20 -38 -94 -38 -234 -1 -70 2 -80 24 -102 15 -16 36
-25 55 -25 19 0 40 9 55 25 21 20 25 34 25 82 0 32 3 95 6 140 7 78 6 82 -19
107 -31 31 -75 34 -108 7z"/>
<path d="M4826 2617 c-21 -21 -23 -35 -30 -161 -6 -116 -4 -142 9 -162 28 -44
101 -44 130 -1 10 17 17 64 21 159 l7 136 -26 26 c-33 33 -79 35 -111 3z"/>
<path d="M4737 1958 c-15 -14 -37 -61 -57 -118 -280 -827 -1038 -1424 -1914
-1509 -60 -6 -138 -11 -173 -11 -55 0 -68 -4 -88 -25 -34 -33 -33 -78 1 -112
l26 -26 131 7 c345 17 641 94 952 246 236 116 436 258 629 448 271 267 464
571 582 915 42 122 43 158 8 186 -35 27 -67 27 -97 -1z"/>
</g>
</svg>
